<?xml version="1.0" encoding="UTF-8"?>
<svg xmlns="http://www.w3.org/2000/svg" version="1.1" viewBox="0 0 18 18">
  <defs>
    <style>
      .cls-1 {
        fill: #1a1718;
      }
    </style>
  </defs>
  <!-- Generator: Adobe Illustrator 28.6.0, SVG Export Plug-In . SVG Version: 1.2.0 Build 709)  -->
  <g>
    <g id="Layer_1">
      <circle class="cls-1" cx=".6" cy=".6" r=".6"/>
      <circle class="cls-1" cx="7.5" cy="4" r=".6"/>
      <circle class="cls-1" cx="7.5" cy="7.5" r=".4"/>
      <circle class="cls-1" cx="4" cy="10.8" r=".4"/>
      <circle class="cls-1" cx="10.9" cy="7.4" r=".5"/>
      <circle class="cls-1" cx=".6" cy="4" r=".6"/>
      <circle class="cls-1" cx="4" cy=".6" r=".4"/>
      <circle class="cls-1" cx="17.8" cy="10.8" r=".3"/>
      <circle class="cls-1" cx="17.8" cy=".6" r=".2"/>
      <circle class="cls-1" cx="17.8" cy="4" r=".1"/>
      <circle class="cls-1" cx="10.9" cy=".6" r=".6"/>
      <circle class="cls-1" cx="7.5" cy=".6" r=".4"/>
      <circle class="cls-1" cx="17.8" cy="7.4" r=".2"/>
      <circle class="cls-1" cx="14.3" cy=".6" r=".3"/>
      <circle class="cls-1" cx="14.3" cy="4" r=".2"/>
      <circle class="cls-1" cx="14.3" cy="7.4" r=".2"/>
      <circle class="cls-1" cx="4" cy="4" r=".2"/>
      <circle class="cls-1" cx="4" cy="7.4" r=".2"/>
      <circle class="cls-1" cx=".6" cy="7.4" r=".2"/>
      <circle class="cls-1" cx=".6" cy="10.8" r=".2"/>
      <circle class="cls-1" cx="7.5" cy="10.8" r=".2"/>
      <circle class="cls-1" cx="7.5" cy="14.2" r=".2"/>
      <circle class="cls-1" cx=".6" cy="17.6" r=".2"/>
      <circle class="cls-1" cx="7.5" cy="17.6" r=".2"/>
      <circle class="cls-1" cx="17.8" cy="17.6" r=".2"/>
      <circle class="cls-1" cx="4" cy="14.2" r=".2"/>
      <circle class="cls-1" cx="14.3" cy="10.8" r=".2"/>
      <circle class="cls-1" cx="14.3" cy="14.2" r=".2"/>
      <circle class="cls-1" cx="10.9" cy="10.9" r=".2"/>
      <circle class="cls-1" cx="10.9" cy="14.2" r=".2"/>
      <circle class="cls-1" cx=".6" cy="14.2" r=".1"/>
      <circle class="cls-1" cx="14.3" cy="17.7" r=".1"/>
      <circle class="cls-1" cx="4" cy="17.7" r=".1"/>
      <circle class="cls-1" cx="10.9" cy="17.6" r=".1"/>
      <circle class="cls-1" cx="17.8" cy="14.2" r=".1"/>
      <circle class="cls-1" cx="10.9" cy="4" r=".2"/>
    </g>
  </g>
</svg>